<svg width="48" height="48" viewBox="0 0 48 48" xmlns="http://www.w3.org/2000/svg" class="ExzB24"><g fill="none" fill-rule="evenodd"><path d="M0 48h48V0H0z"></path><path fill="#28BF9A" d="m36.639 22.383.66.467-10.88 13.21-.636-.052-1.763 2.972L24 39l-.02-.02-1.73-3.053-.68.123-10.87-13.2.378-.467-.908-.663L16 12h4.51l.353 1 .697-1h4.958l.472 1 .5-1H32l5.83 9.72z"></path><path fill="#FFF" d="m37.83 21.72-6.98 1.21L27.49 12h-1.05l3.38 11-11.65.01L21.56 12h-1.05l-3.35 10.92-6.99-1.2L10 22l.7.85 6.44 1.08 4.43 12.12 2.41 2.93L18.27 24l11.46-.01-5.71 14.99 2.4-2.92 4.43-12.12 6.45-1.09.7-.85z"></path></g></svg>