<svg width="96" height="96" xmlns="http://www.w3.org/2000/svg"><g fill="none" fill-rule="evenodd"><path d="M0 0h96v96H0z"></path><path d="m48.773 7.5 4.855 7.552L43 26.743l-10.628-11.69L37.227 7.5h11.546z" fill="#28BF9A" stroke="#FFF" stroke-opacity="0.298"></path><path d="m41.773 68.5 4.855 7.552L36 87.743l-10.628-11.69 4.855-7.553h11.546z" fill="#192C55" stroke="#FFF" stroke-opacity="0.298"></path><path d="M39.701 34.5H57.3l7.328 11.441L48.5 63.745 32.373 45.94 39.7 34.5z" fill="#116DFF" stroke="#FFF" stroke-opacity="0.298"></path><path d="m25.773 25.5 4.855 7.552L20 44.743 9.372 33.053l4.855-7.553h11.546z" fill="#FCA760" stroke="#FFF" stroke-opacity="0.298"></path><path fill="#FCA760" d="M92 52 82 63 72 52l4.5-7h11z"></path><path d="m87.773 44.5 4.855 7.552L82 63.743l-10.628-11.69 4.855-7.553h11.546z" stroke-opacity="0.298" stroke="#FFF" fill="#FFD527"></path><path d="M81.901 68.99c.75 4.91-1.16 9-5.24 11.24a13.06 13.06 0 0 1-8.4 1.38 4.39 4.39 0 0 1-2 4.64 8.16 8.16 0 0 1-4.27.98 21.88 21.88 0 0 1-14.4-6.3l.72-.7c4.62 4.77 13.53 7.47 17.34 5.17 1.35-.8 1.85-2.15 1.51-4a9.34 9.34 0 0 1-3.65-1.93c-2.51-2.19-3-4.08-2.57-5.1a1.64 1.64 0 0 1 1.56-1c1.463 0 3.688 1.685 5.235 6.178l.115.342c.08.23.15.46.2.67a12 12 0 0 0 8.12-1.2c2.17-1.19 5.66-4.1 4.73-10.22l1-.15zm-19.51 5.39a.57.57 0 0 0-.57.35c-.27.71.33 2.26 2.3 4a8.15 8.15 0 0 0 2.75 1.54v-.05c-1.5-4.56-3.56-5.81-4.43-5.83l-.05-.01zM62.081 14l.185.027c2.103.352 21.245 4.402 21.245 25.473h-1c0-21.3-19.73-24.38-20.57-24.5l.14-1zM18.944 71.384l-.143-.12c-1.383-1.225-12.138-11.577-7.734-25.939.739.171 0 0 .874.5-4.354 14.41 7.088 24.31 7.651 24.785l-.648.774z" fill="#192C55"></path></g></svg>