
<svg preserveAspectRatio="xMidYMid meet" data-bbox="0 0 208 53.314" xmlns="http://www.w3.org/2000/svg" viewBox="0 0 208 53.314" height="54" width="208" data-type="color" role="img" aria-labelledby="svgcid-75829w-55mvpv"><title id="svgcid-75829w-55mvpv">Dribble logo</title>
    <g>
        <path fill="#9198A3" d="M0 26.657c0-4.834 1.145-9.295 3.435-13.382s5.4-7.322 9.33-9.703C16.697 1.191 20.986 0 25.636 0c4.647 0 8.937 1.19 12.867 3.572 3.93 2.381 7.041 5.616 9.331 9.703 2.29 4.087 3.435 8.548 3.435 13.382s-1.145 9.294-3.435 13.381c-2.29 4.088-5.4 7.322-9.33 9.704-3.931 2.38-8.22 3.572-12.869 3.572-4.648 0-8.938-1.191-12.868-3.572-3.93-2.382-7.041-5.616-9.331-9.704C1.145 35.951 0 31.491 0 26.657Zm4.255 0c0 5.544 1.795 10.431 5.383 14.66 1.641-3.34 4.239-6.521 7.793-9.542 3.555-3.021 7.024-4.923 10.408-5.705a64.542 64.542 0 0 0-1.487-3.358c-5.879 1.954-12.236 2.932-19.072 2.932a59.93 59.93 0 0 1-2.973-.053c0 .142-.009.32-.026.533-.017.213-.026.39-.026.533Zm.667-5.492c.752.072 1.863.107 3.332.107 5.708 0 11.125-.8 16.252-2.399-2.597-4.798-5.451-8.797-8.562-11.996-2.7 1.422-5.015 3.395-6.946 5.918a23.116 23.116 0 0 0-4.076 8.37Zm7.639 23.032c3.862 3.128 8.22 4.691 13.073 4.691 2.53 0 5.041-.497 7.536-1.492a80.907 80.907 0 0 0-3.998-17.647c-3.145.71-6.315 2.506-9.51 5.385-3.196 2.879-5.563 5.9-7.101 9.063ZM20.405 5.17c3.008 3.235 5.793 7.269 8.356 12.103 4.649-2.026 8.152-4.603 10.51-7.73-3.964-3.413-8.51-5.119-13.637-5.119-1.743 0-3.486.249-5.23.746Zm10.202 15.89c.513 1.137 1.094 2.577 1.743 4.318 2.53-.249 5.28-.373 8.254-.373 2.12 0 4.221.053 6.306.16-.273-4.834-1.948-9.134-5.024-12.902-2.222 3.448-5.981 6.38-11.279 8.797Zm3.025 8.05a79.117 79.117 0 0 1 3.537 16.207c2.7-1.812 4.905-4.14 6.614-6.984a22.105 22.105 0 0 0 3.076-9.223 96.68 96.68 0 0 0-6.819-.266c-1.88 0-4.016.088-6.408.266Z" data-color="1"></path>
        <path fill="#9198A3" d="M110.08 22.894c1.614 0 2.922-1.33 2.922-2.97 0-1.64-1.308-2.97-2.922-2.97-1.613 0-2.921 1.33-2.921 2.97 0 1.64 1.308 2.97 2.921 2.97Zm96.431 10.147c-.444-.317-.788-.37-1.072.247-4.908 10.8-13.178 5.411-12.356 5.885 1.834-.852 6.659-4.784 5.929-10.213-.442-3.318-3.245-4.79-6.219-4.263-5.192.92-7.103 6.611-6.13 11.65.17.865.474 1.578.778 2.277-5.868 4.849-8.198-4.34-8.462-5.438-.011-.059 4.53-3.905 5.793-13.07 1.324-9.606-1.691-11.355-4.775-11.3-5.706.1-7.248 12.215-5.176 22.312-.174.046-.981.5-2.279.551-.933-2.985-4.922-5.601-5.966-4.593-2.613 2.522.633 7.453 2.918 7.84-1.373 8.589-9.955 6.462-8.357-4.299 2.795-5.273 4.92-13.115 4.541-17.849-.135-1.676-1.354-3.921-4.112-3.81-5.304.213-5.881 12.332-5.259 20.933-.031-.212-.326 1.044-2.5 1.67-.514-2.9-5.109-5.812-6.191-4.412-2.025 2.62 1.485 7.29 3.147 7.615-1.372 8.589-9.954 6.462-8.356-4.299 2.794-5.273 4.919-13.115 4.54-17.849-.134-1.676-1.353-3.921-4.111-3.81-5.305.213-5.881 12.331-5.26 20.932-.031-.215-.333 1.083-2.595 1.698-.076-3.763-4.688-5.488-5.796-4.288-1.974 2.14.453 6.531 2.698 7.616-1.373 8.589-9.954 6.462-8.357-4.299 2.795-5.273 4.92-13.115 4.541-17.849-.134-1.676-1.354-3.921-4.112-3.81-5.304.213-5.731 12.94-5.109 21.541-1.747 7.607-7.606 17.106-6.845-1.923.075-1.335.158-1.842-.497-2.341-.491-.389-1.607-.202-2.217-.186-.741.03-.927.47-1.091 1.137-.382 1.72-.45 3.388-.505 5.664-.036 1.064-.12 1.561-.523 3.013-.403 1.451-2.702 4.104-3.96 3.66-1.746-.61-1.173-5.619-.846-9.06.272-2.72-.601-3.94-2.837-4.385-1.31-.277-2.105-.235-3.47-.671-1.289-.413-1.58-2.892-4.331-2.066-1.505.452-.537 3.691-.899 6.092-1.778 11.81-5.476 12.134-7.192 6.397 7.728-19.234 2.235-26.817-.98-26.817-3.349 0-7.177 2.344-5.556 17.342-.788-.234-1.03-.36-1.893-.36-4.88 0-8.204 4.009-8.204 8.954s3.325 8.953 8.204 8.953c2.881 0 4.904-1.33 6.435-3.39 1 1.454 2.217 3.413 4.442 3.325 6.633-.263 8.562-14.09 8.79-14.861.71.111 1.38.321 2.035.432 1.091.167 1.17.606 1.146 1.72-.29 9.405 1.418 12.697 5.292 12.697 2.158 0 4.082-2.154 5.407-3.695.99 2.076 2.567 3.632 4.683 3.695 5.127.13 7.089-8.174 6.91-7.081-.14.857 1.664 7.034 6.942 7.057 6.538.028 7.753-7.278 7.898-8.502.018-.244.026-.218 0 0l-.005.074c2.076-.392 3.147-1.523 3.147-1.523s1.666 10.064 7.84 9.951c6.411-.118 7.62-6.722 7.779-8.01.021-.306.033-.27 0 0l-.003.038c2.466-.912 3.115-1.827 3.115-1.827s1.324 9.865 7.84 9.951c5.806.077 7.958-5.965 7.971-8.494.979.01 2.791-.59 2.748-.624 0 0 2.127 8.624 8.066 9.067 2.789.208 4.881-1.594 6.073-2.416 2.803 2.306 12.134 5.252 18.026-4.9.832-1.457-.956-3.178-1.27-3.403Zm-131.542 7.37c-2.847 0-4.673-2.674-4.673-5.559 0-2.884 1.676-5.559 4.523-5.559 1.281 0 1.994.143 2.992 1.025.18.725.693 2.396.943 3.155.334 1.016.732 1.88 1.133 2.82-.573 2.414-2.45 4.119-4.918 4.119Zm6.938-10.008c-.119-.192-.094-.074-.227-.255-.521-1.442-1.527-4.662-1.644-8.32-.131-4.137.547-8.986 2.548-8.986 1.355 0 2.796 9.828-.678 17.561Zm40.086-4.31c-.321-2.456-.338-13.4 2.247-13.1 1.428.588-.905 10.916-2.247 13.1Zm18.88 0c-.321-2.456-.338-13.4 2.248-13.1 1.428.588-.905 10.916-2.248 13.1Zm18.731.152c-.322-2.456-.338-13.4 2.247-13.099 1.428.588-.905 10.916-2.247 13.099Zm20.678-13.892c2.364-.249 2.267 10.242-2.478 16.864-.612-2.393-1.55-16.042 2.478-16.864Zm9.936 22.573c-.759-3.897 1.203-6.457 3.226-6.738.706-.114 1.731.351 1.935 1.221.336 1.64-.048 4.072-4.575 7.158a6.412 6.412 0 0 1-.585-1.64h-.001Z" data-color="1"></path>
    </g>
</svg>