<svg preserveAspectRatio="xMidYMid meet" data-bbox="0 0.988 160 63.682" xmlns="http://www.w3.org/2000/svg" viewBox="0 0.988 160 63.682" height="65" width="160" data-type="color" role="img" aria-labelledby="svgcid--o26o9b2qltwn"><title id="svgcid--o26o9b2qltwn">Virgin Pulse logo</title>
    <g>
        <path fill="#ffffff" d="M32.6 54.875c11.758 0 21.29-9.531 21.29-21.289 0-11.758-9.532-21.29-21.29-21.29-11.757 0-21.289 9.532-21.289 21.29s9.532 21.29 21.29 21.29Z" data-color="1"></path>
        <path fill="#9198A3" d="M50.388 11.923C37.42-1.034 18.074-2.715 7.184 8.162c-10.889 10.876-9.214 30.2 3.762 43.157 12.977 12.957 32.315 14.638 43.208 3.757 10.893-10.88 9.206-30.2-3.766-43.153ZM34.4 58.938c-13.701 0-24.807-10.56-24.807-23.59C9.592 22.32 20.698 11.76 34.4 11.76c13.701 0 24.81 10.56 24.81 23.61 0 13.049-11.109 23.569-24.81 23.569Z" opacity=".2" data-color="2"></path>
        <path fill="#9198A3" d="M58.153 13.264C47.66 2.004 28.723 2.57 15.863 14.532c-12.86 11.96-14.788 30.784-4.295 42.05 10.492 11.264 29.434 10.691 42.298-1.27 12.864-11.96 14.783-30.788 4.287-42.048ZM34.399 58.938c-13.701 0-24.807-10.56-24.807-23.59C9.592 22.32 20.698 11.76 34.4 11.76s24.811 10.56 24.811 23.61c0 13.049-11.11 23.569-24.81 23.569Z" opacity=".2" data-color="2"></path>
        <path fill="#9198A3" d="M53.12 13.416a27.918 27.918 0 0 0-30.39-6.037 27.88 27.88 0 0 0-12.515 10.26 27.832 27.832 0 0 0 0 30.95 27.883 27.883 0 0 0 12.515 10.26 27.92 27.92 0 0 0 16.113 1.585 27.9 27.9 0 0 0 14.279-7.622 27.85 27.85 0 0 0 8.169-19.698 27.828 27.828 0 0 0-8.17-19.698ZM41.21 22.7a1.008 1.008 0 0 1 .99-.092c.476.268 0 .932 0 .932s-.522.8-.962.84c-.349.044-.801-.116-.801-.532a1.754 1.754 0 0 1 .76-1.148h.013Zm-1.883 10.112s.44-4.894.52-5.35c.105-.597.25-.705.25-.705s.612-.74 1.113-.612c.448.064.4.744.4.744l-.28 3.294c-.01.78-.062 1.56-.156 2.337a1.979 1.979 0 0 1-1.082.8.653.653 0 0 1-.5 0 .48.48 0 0 1-.277-.508h.012Zm-8.573-1.921a.606.606 0 0 1 .773.36.799.799 0 0 1-.2 1.056l-.654.493a5.508 5.508 0 0 0-.697.8c-.2.34-.306.726-.308 1.12-.084.624-.144 2.585-.144 2.585s.132.273-.165.8a1.823 1.823 0 0 1-1.03.825s-.4.12-.608-.096a1.036 1.036 0 0 1-.216-.536l.32-5.414a1.716 1.716 0 0 1 .629-1.16 3.287 3.287 0 0 1 1.262-.357l1.037-.476ZM20.529 46.837s-.156.849-.865.849a.801.801 0 0 1-.801-.56l-2.24-13.394s-.06-.468-.34-.248c-.16.272-1.442 3.57-1.442 3.57a.856.856 0 0 1-1.034.356.709.709 0 0 1-.493-.8l2.6-7.64a1.09 1.09 0 0 1 1.066-.6c.701.104.841 1.004.841 1.004l1.715 10.288s.04.184.12.184c.08 0 .112-.284.112-.284s.802-5.558 1.783-9.503c.233-.905 1.142-4.322 2.051-6.895 1.202-3.482 2.536-6.535 2.536-6.535s.894-1.697 2.372-.8a1.49 1.49 0 0 1 .244 2.289 12.75 12.75 0 0 0-1.847 2.425c-1.31 2.4-2.596 7.003-3.38 9.655a85.343 85.343 0 0 0-2.18 10.889c-.209 1.244-.83 5.75-.83 5.75h.012Zm5.257-16.074c-.133.04-.273.112-.59-.172-.316-.284-.067-.733.109-1.053a3.13 3.13 0 0 1 .841-.696s.545-.244.693-.064c.096.13.16.278.189.436a.739.739 0 0 1-.152.632 4.995 4.995 0 0 1-1.09.917Zm-.225 9.167a.67.67 0 0 1-.216.48c-.255.2-.522.384-.801.549 0 0-.16.124-.55 0a.6.6 0 0 1-.251-.48s.256-5.082.356-5.63a2.83 2.83 0 0 1 .313-.945s.669-.864 1.362-.8c.324.052.4.444.4.5.197.612-.613 6.33-.613 6.33v-.004Zm26.65-9.603c-.575.25-1.166.462-1.77.632-.353.06-3.73 1.732-5.385 2.613a69.091 69.091 0 0 0-7.472 4.654v.024s-.148 6.97-.152 7.539c0 2 .681 3.441.613 4.225a1.15 1.15 0 0 1-1.43 1.137c-1.05-.16-.974-1.769-.974-1.769l.132-5.262v-4.61a62.985 62.985 0 0 0-7.483 6.003c-1.054 1.068-3.983 4.45-4.555 4.55-.401.056-.866.155-1.23-.26a1.14 1.14 0 0 1-.173-1.097c.657-1.3 5.645-5.262 6.41-5.963.593-.536 4.463-3.397 7.02-5.23v-.96c0-.308-.189-.124-.189-.124l-.68.4s-1.07.512-1.936.156c-.58-.252-.77-1.048-.801-1.316-.032-.268-.04-1.637-.04-1.637a8.587 8.587 0 0 1 .6-3.201 3.512 3.512 0 0 1 2.144-2.037.47.47 0 0 1 .46.024.62.62 0 0 1 .117.668c-.089.288-.26.544-.493.737a5.14 5.14 0 0 0-.56.96 18.4 18.4 0 0 0-.453 2.841 1.6 1.6 0 0 0 .176.949s.144.34.717.156a1.09 1.09 0 0 0 .773-.677 2.08 2.08 0 0 0 .176-.588l.481-5.258a1.104 1.104 0 0 1 .938-.833c.7-.072.845.369.861.457.1.656-.34 5.018-.4 5.686-.033.324-.057 1.345-.069 2.317l.052-.036c1.707-1.129 7.612-4.498 7.612-4.498l2.236-1.304a1.034 1.034 0 0 1-.545-.857c0-.58.152-3.905.152-3.905a.545.545 0 0 0-.216-.496.461.461 0 0 0-.517-.04 5.16 5.16 0 0 0-1.086 1.056 7.593 7.593 0 0 0-.505 2.213 17.16 17.16 0 0 0 .04 2.08 1.455 1.455 0 0 1-.26.657 2.356 2.356 0 0 1-.781.468.741.741 0 0 1-.681.036.642.642 0 0 1-.28-.604l.252-4.93a2.03 2.03 0 0 1 .4-1.029 1.75 1.75 0 0 1 1.146-.464c.372.044.749.017 1.11-.08.145-.075.271-.18.373-.308.33-.384.728-.706 1.173-.948a1.03 1.03 0 0 1 1.026-.068.873.873 0 0 1 .525.732c.156 2.189-.028 4.274 0 4.59a.88.88 0 0 0 .4.76c.285.18.73-.12.73-.12l1.822-.908a1.401 1.401 0 0 1 1.362.324c.537.784-.308 1.465-.913 1.76v.013Z" data-color="2"></path>
        <path fill="#9198A3" d="M130.538 43.092c-4.531 0-7.564-2.505-7.725-6.403v-.312h3.458v.28c.14 1.953 1.767 3.117 4.359 3.117 2.472 0 4.066-1.02 4.066-2.593 0-1.82-1.807-2.265-4.567-2.729-3.105-.54-6.971-1.2-6.971-5.682 0-3.398 2.933-5.678 7.304-5.678 4.37 0 7.191 2.369 7.307 6.03v.312h-3.365v-.284c-.101-1.837-1.523-2.85-4.007-2.85-2.311 0-3.81.933-3.81 2.374 0 1.6 1.651 2 4.371 2.42 3.241.525 7.236 1.17 7.236 5.96.004 3.62-3.073 6.038-7.656 6.038Z" data-color="2"></path>
        <path fill="#9198A3" d="M119.593 42.688h-3.53V16.889h3.53v25.799Z" data-color="2"></path>
        <path fill="#9198A3" d="M103.576 43.092c-5.188 0-8.542-3.35-8.542-8.54V23.517h3.526V34.08c0 3.498 1.875 5.602 5.016 5.602s5.015-2.084 5.015-5.602V23.516h3.53v11.037c0 5.19-3.353 8.539-8.545 8.539Z" data-color="2"></path>
        <path fill="#9198A3" d="M75.704 49.314h-3.525V23.516h2.575l.513 2.5a9.705 9.705 0 0 1 7.1-2.904c5.712 0 9.855 4.201 9.855 10.004 0 5.694-4.235 10.004-9.856 10.004a9.8 9.8 0 0 1-6.646-2.481l-.016 8.675Zm6.41-22.777a6.578 6.578 0 0 0-4.544 1.979 6.563 6.563 0 0 0 4.544 11.15c3.778 0 6.518-2.757 6.518-6.562 0-3.806-2.724-6.567-6.502-6.567h-.016Z" data-color="2"></path>
        <path fill="#9198A3" d="M150.333 39.634c-3.237 0-5.633-2-6.194-5.098h15.773l.024-.276c.032-.352.064-.716.064-1.08 0-5.835-4.067-10.068-9.667-10.068-5.601 0-9.783 4.293-9.783 10.004 0 5.71 4.206 10.004 9.783 10.004 4.006 0 7.367-2.225 9.022-5.967h-3.858a6.205 6.205 0 0 1-5.164 2.481Zm0-13.157c3.065 0 5.36 1.809 6.061 4.754h-12.167a6.04 6.04 0 0 1 6.106-4.754Z" data-color="2"></path>
    </g>
</svg>