<svg preserveAspectRatio="xMidYMid meet" data-bbox="0 0 287 43.795" xmlns="http://www.w3.org/2000/svg" viewBox="0 0 287 43.795" height="44" width="287" data-type="color" role="img" aria-labelledby="svgcid--2bsawqyg7f5d"><title id="svgcid--2bsawqyg7f5d">Bandsintown logo</title>
    <g>
        <path fill="#9198A3" d="M59.032 32.08h-.088v2.913h-4.2V4.98h4.2v13.138h.088c1.244-2.141 3.429-3.556 6.687-3.556 5.23 0 9.635 3.942 9.635 10.546 0 6.604-4.419 10.546-9.635 10.546-3.258-.018-5.443-1.432-6.687-3.574Zm11.873-7.007c0-3.775-2.4-6.433-6.088-6.433-3.687 0-6.087 2.658-6.087 6.433s2.4 6.43 6.087 6.43c3.688 0 6.088-2.642 6.088-6.412v-.018Z" data-color="1"></path>
        <path fill="#9198A3" d="M78.245 25.09c0-6.604 4.414-10.546 9.635-10.546 3.285 0 5.474 1.42 6.7 3.557h.088v-2.917h4.204v19.809h-4.204V32.08h-.083c-1.244 2.142-3.43 3.556-6.688 3.556-5.238 0-9.652-3.946-9.652-10.546Zm16.642 0c0-3.775-2.404-6.433-6.092-6.433-3.687 0-6.087 2.658-6.087 6.433 0 3.776 2.4 6.43 6.087 6.43 3.688 0 6.088-2.659 6.088-6.43h.004Z" data-color="1"></path>
        <path fill="#9198A3" d="M122.167 22.817v12.175h-4.2V23.544c0-3.385-1.717-4.817-4.546-4.817-3.087 0-5.255 1.844-5.255 6.775v9.473h-4.2V15.184h4.2v3.004h.087c1.284-2.273 3.43-3.644 6.473-3.644 4.227 0 7.441 2.269 7.441 8.273Z" data-color="1"></path>
        <path fill="#9198A3" d="M125.969 25.09c0-6.604 4.418-10.546 9.634-10.546 3.259 0 5.444 1.415 6.688 3.556h.088V4.963h4.2v30.013h-4.174V32.08h-.088c-1.243 2.142-3.429 3.556-6.687 3.556-5.243 0-9.661-3.946-9.661-10.546Zm16.642 0c0-3.775-2.405-6.433-6.088-6.433-3.683 0-6.092 2.658-6.092 6.433s2.405 6.43 6.092 6.43c3.688 0 6.083-2.659 6.083-6.43h.005Z" data-color="1"></path>
        <path fill="#9198A3" d="m149.956 33.534 1.887-3.727a12.537 12.537 0 0 0 6.303 1.883c2.014 0 3.087-.6 3.087-1.839 0-.815-.438-1.415-2.102-2.23l-3.6-1.751c-3-1.415-4.161-3.43-4.161-5.693 0-3.644 2.703-5.615 7.034-5.615 2.367.04 4.702.565 6.858 1.542l-1.712 3.643a13.644 13.644 0 0 0-5.256-1.287c-1.843 0-2.443.6-2.443 1.502s.56 1.546 2.273 2.36l3.687 1.752c2.575 1.2 3.942 2.917 3.942 5.575 0 4.03-3.066 6-7.717 6a16.464 16.464 0 0 1-8.08-2.115Z" data-color="1"></path>
        <path fill="#9198A3" d="M169.431 15.184h4.205v19.809h-4.205V15.184Z" data-color="1"></path>
        <path fill="#9198A3" d="M171.534 10.537a2.553 2.553 0 1 0 0-5.106 2.553 2.553 0 0 0 0 5.106Z" data-color="1"></path>
        <path fill="#9198A3" d="M197.009 22.817v12.175h-4.2V23.544c0-3.385-1.717-4.817-4.546-4.817-3.066 0-5.255 1.844-5.255 6.775v9.473h-4.205V15.184h4.205v3.004h.083c1.287-2.273 3.433-3.644 6.477-3.644 4.226 0 7.441 2.269 7.441 8.273Z" data-color="1"></path>
        <path fill="#9198A3" d="M207.336 18.745v10.357c0 1.415.6 2.059 2.058 2.059h1.03v3.858h-1.932c-3.473 0-5.356-1.844-5.356-5.102V18.745h-3.504v-3.561h3.504V7.253h4.2v7.931h4.029v3.56h-4.029Z" data-color="1"></path>
        <path fill="#9198A3" d="M234.603 25.09c0 6.088-4.629 10.546-10.848 10.546-6.219 0-10.839-4.458-10.839-10.546 0-6.087 4.633-10.546 10.848-10.546 6.214 0 10.839 4.459 10.839 10.546Zm-17.233 0c0 3.902 2.627 6.43 6.385 6.43s6.39-2.527 6.39-6.43c0-3.902-2.628-6.433-6.39-6.433-3.762 0-6.385 2.531-6.385 6.433Z" data-color="1"></path>
        <path fill="#9198A3" d="m265.961 15.184-6.622 19.809h-3.863l-4.712-14.19-4.761 14.19h-3.858l-6.67-19.809h4.633l3.986 14.277 4.589-14.277h4.086l4.586 14.277 3.99-14.277h4.616Z" data-color="1"></path>
        <path fill="#9198A3" d="M287 22.817v12.175h-4.2V23.544c0-3.385-1.717-4.817-4.546-4.817-3.088 0-5.255 1.844-5.255 6.775v9.473h-4.2V15.184h4.2v3.004h.087c1.283-2.273 3.429-3.644 6.473-3.644 4.226 0 7.441 2.269 7.441 8.273Z" data-color="1"></path>
        <path fill="#9198A3" d="M20.435 8.76h-8.759v11.68h8.76V8.76Z" data-color="1"></path>
        <path fill="#9198A3" d="M32.115 8.76h-8.759v11.68h8.759V8.76Z" data-color="1"></path>
        <path fill="#9198A3" d="M43.795 0h-8.759v20.44h8.76V0Z" data-color="1"></path>
        <path fill="#9198A3" d="M11.676 23.356v8.76h23.36v2.92H8.76V0H0v43.795h43.795V23.356h-32.12Z" data-color="1"></path>
    </g>
</svg>