<svg preserveAspectRatio="xMidYMid meet" data-bbox="0 0 141 36" xmlns="http://www.w3.org/2000/svg" viewBox="0 0 141 36" height="36" width="141" data-type="color" role="img" aria-labelledby="svgcid-19q5vf-dir57t"><title id="svgcid-19q5vf-dir57t">Vevo logo</title>
    <g>
        <path fill="#9198A3" d="M123.238 0c-9.81 0-17.763 8.06-17.763 18s7.953 18 17.763 18C133.047 36 141 27.94 141 18s-7.952-18-17.762-18Zm0 26.4c-4.441 0-7.698-3.6-7.698-8.4 0-4.8 3.26-8.4 7.698-8.4 4.437 0 7.697 3.6 7.697 8.4 0 4.8-3.257 8.4-7.697 8.4ZM71.134 18c0-9.94-7.686-18-17.17-18-9.484 0-17.17 8.06-17.17 18s7.695 18 17.466 18c7.804 0 13.924-4.78 15.96-11.4H59.884c-1.435 2.15-3.542 2.7-5.625 2.7-3.995 0-6.54-2.787-7.339-6.6h24.02a18.9 18.9 0 0 0 .193-2.7Zm-17.17-9.6c3.427 0 6.08 2.391 6.895 6H47.054c.922-3.752 3.375-6 6.908-6h.002Zm-34.34 27.3L0 1.05h11.553l8.07 15.75 8.07-15.75h11.553L19.623 35.7Zm68.68 0L68.683 1.05h11.553l8.07 15.75 8.07-15.75h11.553L88.305 35.7Z" data-color="1"></path>
    </g>
</svg>