<svg preserveAspectRatio="xMidYMid meet" data-bbox="0 0.001 160 41.482" xmlns="http://www.w3.org/2000/svg" viewBox="0 0.001 160 41.482" height="42" width="160" data-type="color" role="img" aria-labelledby="svgcid-147k3b3vtbfm"><title id="svgcid-147k3b3vtbfm">Artlist logo</title>
    <g>
        <path fill="#9198A3" d="M57.613 18.331c-2.097 0-4.161.45-6.065 1.286a7.663 7.663 0 0 0-3.806 3.73v17.59H40.29V11.9h6.839v6.206a12.513 12.513 0 0 1 1.839-2.701 14.133 14.133 0 0 1 2.29-2.09c.774-.547 1.58-1.03 2.484-1.351a7.892 7.892 0 0 1 2.42-.482h.903c.193 0 .387.032.58.064l-.032 6.785Z" data-color="1"></path>
        <path fill="#9198A3" d="M80.613 39.425a29.41 29.41 0 0 1-3.677 1.319c-1.484.45-3 .675-4.549.675-1 0-1.968-.129-2.935-.386-.871-.225-1.678-.675-2.388-1.254a6.246 6.246 0 0 1-1.645-2.219 7.611 7.611 0 0 1-.612-3.28V17.591h-3.84V11.9h3.84V2.479h7.451V11.9h6.13v5.692h-6.13v14.181c0 1.03.258 1.769.806 2.187.549.45 1.259.675 1.968.643.775 0 1.549-.129 2.29-.386a27.465 27.465 0 0 0 1.775-.675l1.516 5.884Z" data-color="1"></path>
        <path fill="#9198A3" d="M83.742.484h7.452v31.127c0 1.061.258 1.897.774 2.509.58.61 1.387.932 2.226.9.483 0 1-.097 1.483-.225a8.532 8.532 0 0 0 1.517-.547l1 5.66c-1.13.514-2.29.9-3.517 1.093a17.022 17.022 0 0 1-3.612.386c-2.323 0-4.13-.611-5.42-1.865s-1.903-2.99-1.935-5.274L83.742.484Z" data-color="1"></path>
        <path fill="#9198A3" d="M102.097 40.937V11.899h7.451v29.038h-7.451Z" data-color="1"></path>
        <path fill="#9198A3" d="M110.032 4.214a3.719 3.719 0 0 1-1.258 3.023c-.806.74-1.838 1.158-2.935 1.126a4.304 4.304 0 0 1-3-1.126 3.974 3.974 0 0 1-1.258-3.023c0-1.318.419-2.347 1.258-3.087a4.304 4.304 0 0 1 3-1.125c1.097 0 2.129.386 2.935 1.125.839.74 1.258 1.737 1.258 3.087Z" data-color="1"></path>
        <path fill="#9198A3" d="M126.581 41.483c-2.452 0-4.871-.386-7.162-1.157a18.003 18.003 0 0 1-6-3.313l2.775-4.662a24.752 24.752 0 0 0 5.193 2.862 13.59 13.59 0 0 0 5.032.965c1.484 0 2.646-.29 3.517-.837a2.677 2.677 0 0 0 1.29-2.38c.032-.996-.581-1.896-1.484-2.282a36.7 36.7 0 0 0-4.903-1.672c-1.903-.515-3.516-.997-4.839-1.48a12.206 12.206 0 0 1-3.226-1.64c-.774-.546-1.387-1.254-1.774-2.122a6.653 6.653 0 0 1-.548-2.862 8.555 8.555 0 0 1 .871-3.987c.58-1.158 1.387-2.219 2.419-3.023a11.362 11.362 0 0 1 3.645-1.93c1.452-.45 3-.674 4.516-.674 2.065 0 4.162.289 6.129.932a14.652 14.652 0 0 1 5.258 3.055l-3 4.502a18.464 18.464 0 0 0-4.322-2.444 11.335 11.335 0 0 0-4.129-.772 6.067 6.067 0 0 0-3.162.772c-.838.514-1.29 1.35-1.29 2.508-.032.45.097.9.323 1.286.258.386.58.676.967.9.549.322 1.13.547 1.742.74.71.225 1.613.483 2.71.74 2 .514 3.71 1.029 5.129 1.543 1.258.419 2.419 1.03 3.516 1.769.839.579 1.516 1.383 2 2.315.452.965.678 2.058.645 3.12 0 2.83-1.064 5.08-3.161 6.72-2.193 1.704-5.032 2.508-8.677 2.508Z" data-color="1"></path>
        <path fill="#9198A3" d="M160 39.425a29.38 29.38 0 0 1-3.677 1.319c-1.484.45-3 .675-4.549.675-1 0-1.967-.129-2.903-.386-.871-.225-1.677-.675-2.387-1.254a6.24 6.24 0 0 1-1.645-2.219c-.452-1.029-.645-2.154-.613-3.28V17.591h-3.839V11.9h3.839V2.479h7.452V11.9h6.129v5.692h-6.129v14.181c0 1.03.258 1.769.806 2.187.548.45 1.258.675 1.968.643.774 0 1.548-.129 2.29-.386a27.294 27.294 0 0 0 1.774-.675L160 39.425Z" data-color="1"></path>
        <path fill="#9198A3" d="M21.871 4.214h-7.452L0 35.213v5.756a411.08 411.08 0 0 0 18.129.386c6.258 0 12.323-.129 18.13-.386v-5.756L21.87 4.214Zm-3.742 30.742c-3.355 0-6.742-.033-10.129-.129l10.129-21.802 10.13 21.802c-3.356.064-6.743.129-10.13.129Z" data-color="1"></path>
    </g>
</svg>