<svg preserveAspectRatio="xMidYMid meet" data-bbox="0 0 142.84 44.22" xmlns="http://www.w3.org/2000/svg" viewBox="0 0 142.84 44.22" height="45" width="143" data-type="color" role="img" aria-labelledby="svgcid-ayanrrkba2db"><title id="svgcid-ayanrrkba2db">Offf logo</title>
    <g>
        <path fill="#9198A3" d="M46.73 36.04h4.39V24.45h21.35v-3.96H51.12V4.75h22.81V.79h-27.2v35.25Z" data-color="1"></path>
        <path fill="#9198A3" d="M51.11 42.65h-4.38v.82h4.38v-.82Z" data-color="1"></path>
        <path fill="#9198A3" d="M51.11 40.19h-4.38v.82h4.38v-.82Z" data-color="1"></path>
        <path fill="#9198A3" d="M51.11 37.73h-4.38v.82h4.38v-.82Z" data-color="1"></path>
        <path fill="#9198A3" d="M85.57 13.26h-4.38v.82h4.38v-.82Z" data-color="1"></path>
        <path fill="#9198A3" d="M85.57 10.8h-4.38v.82h4.38v-.82Z" data-color="1"></path>
        <path fill="#9198A3" d="M85.57 8.33h-4.38v.82h4.38v-.82Z" data-color="1"></path>
        <path fill="#9198A3" d="M122.44.79h-.82v3.96h.82V.79Z" data-color="1"></path>
        <path fill="#9198A3" d="M124.9.79h-.82v3.96h.82V.79Z" data-color="1"></path>
        <path fill="#9198A3" d="M127.37.79h-.82v3.96h.82V.79Z" data-color="1"></path>
        <path fill="#9198A3" d="M130.46 20.49h-.82v3.96h.82v-3.96Z" data-color="1"></path>
        <path fill="#9198A3" d="M132.92 20.49h-.82v3.96h.82v-3.96Z" data-color="1"></path>
        <path fill="#9198A3" d="M135.39 20.49h-.82v3.96h.82v-3.96Z" data-color="1"></path>
        <path fill="#9198A3" d="M104.49 20.49h-.82v3.95h.82v-3.95Z" data-color="1"></path>
        <path fill="#9198A3" d="M106.95 20.49h-.82v3.95h.82v-3.95Z" data-color="1"></path>
        <path fill="#9198A3" d="M81.19 6.69h4.39V4.75h22.81V.79h-27.2v5.9Z" data-color="1"></path>
        <path fill="#9198A3" d="M85.58 15.73h-4.39v27.75h4.39V24.45h16.45v-3.96H85.58v-4.76Z" data-color="1"></path>
        <path fill="#9198A3" d="M120.03.79h-4.39v42.69h4.39V24.45h8.23v-3.96h-8.23V.79Z" data-color="1"></path>
        <path fill="#9198A3" d="M142.84.79H128.8v3.96h14.04V.79Z" data-color="1"></path>
        <path fill="#9198A3" d="M141.37 20.49h-4.61v3.96h4.61v-3.96Z" data-color="1"></path>
        <path fill="#9198A3" d="M30.27 2.77C27.3.92 23.8 0 19.78 0 15.39 0 11.63 1.12 8.5 3.35c-3.13 2.24-5.41 5.31-6.83 9.21l4.02 1.89c1.1-3.37 2.9-5.97 5.4-7.78 2.5-1.81 5.4-2.71 8.69-2.71 2.93 0 5.53.7 7.81 2.1 2.28 1.4 4.08 3.48 5.4 6.22 1.32 2.74 1.98 6.01 1.98 9.79 0 3.9-.7 7.25-2.1 10.03-.96 1.9-2.2 3.46-3.68 4.73l2.55 3.48c2.16-1.61 3.89-3.72 5.19-6.32 1.71-3.44 2.56-7.41 2.56-11.92 0-4.31-.79-8.14-2.38-11.49-1.6-3.36-3.87-5.96-6.84-7.81Z" data-color="1"></path>
        <path fill="#9198A3" d="m24.88 39.26 1.23 4 1.04-.37-1.56-3.88-.71.25Z" data-color="1"></path>
        <path fill="#9198A3" d="m27.21 38.35 1.9 3.72.95-.54-2.2-3.55-.65.37Z" data-color="1"></path>
        <path fill="#9198A3" d="m22.41 39.91.56 4.23 1.08-.18-.9-4.18-.74.13Z" data-color="1"></path>
        <path fill="#9198A3" d="M19.78 40.24c-2.93 0-5.54-.71-7.84-2.13s-4.1-3.5-5.4-6.22c-1.13-2.37-1.74-5.17-1.89-8.37l-4.51.63c.22 3.5.98 6.66 2.31 9.45 1.59 3.33 3.86 5.94 6.83 7.81 2.97 1.87 6.47 2.81 10.49 2.81h.67l-.06-4.02-.6.04Z" data-color="1"></path>
        <path fill="#9198A3" d="M4.59 18.42.2 17.76l-.12 1.09 4.43.32.08-.75Z" data-color="1"></path>
        <path fill="#9198A3" d="M4.33 21 0 21.01l.05 1.1 4.31-.36-.03-.75Z" data-color="1"></path>
        <path fill="#9198A3" d="M5.12 16.1.94 14.65.62 15.7l4.28 1.12.22-.72Z" data-color="1"></path>
    </g>
</svg>